<svg viewBox="0 0 900 1150" xmlns="http://www.w3.org/2000/svg" width="900" height="1150">
    <defs>
        <linearGradient id="lineGrad" x1="0%" y1="0%" x2="100%" y2="0%">
            <stop offset="0%" style="stop-color:#ED8B00;stop-opacity:0"/>
            <stop offset="30%" style="stop-color:#ED8B00;stop-opacity:1"/>
            <stop offset="70%" style="stop-color:#F89820;stop-opacity:1"/>
            <stop offset="100%" style="stop-color:#ED8B00;stop-opacity:0"/>
        </linearGradient>
        <linearGradient id="sectionLine" x1="0%" y1="0%" x2="100%" y2="0%">
            <stop offset="0%" style="stop-color:#ED8B00;stop-opacity:0"/>
            <stop offset="20%" style="stop-color:#ED8B00"/>
            <stop offset="80%" style="stop-color:#ED8B00"/>
            <stop offset="100%" style="stop-color:#ED8B00;stop-opacity:0"/>
        </linearGradient>
        <linearGradient id="cardGrad" x1="0%" y1="0%" x2="100%" y2="100%">
            <stop offset="0%" style="stop-color:#161B22"/>
            <stop offset="100%" style="stop-color:#1A2233"/>
        </linearGradient>
        <linearGradient id="rowLine" x1="0%" y1="0%" x2="100%" y2="0%">
            <stop offset="0%" style="stop-color:#ED8B00;stop-opacity:0"/>
            <stop offset="50%" style="stop-color:#ED8B00;stop-opacity:0.2"/>
            <stop offset="100%" style="stop-color:#ED8B00;stop-opacity:0"/>
        </linearGradient>
        <linearGradient id="contactHeaderLine" x1="0%" y1="0%" x2="100%" y2="0%">
            <stop offset="0%" style="stop-color:#ED8B00;stop-opacity:0"/>
            <stop offset="20%" style="stop-color:#ED8B00"/>
            <stop offset="80%" style="stop-color:#ED8B00"/>
            <stop offset="100%" style="stop-color:#ED8B00;stop-opacity:0"/>
        </linearGradient>
        <filter id="glow">
            <feGaussianBlur stdDeviation="3" result="blur"/>
            <feMerge><feMergeNode in="blur"/><feMergeNode in="SourceGraphic"/></feMerge>
        </filter>
        <clipPath id="heroBounds">
            <rect width="900" height="310"/>
        </clipPath>
    </defs>

    <rect width="900" height="1150" fill="#0D1117"/>

    <g opacity="0.06" clip-path="url(#heroBounds)">
        <line x1="0" y1="40" x2="900" y2="40" stroke="#ED8B00" stroke-width="0.5"/>
        <line x1="0" y1="80" x2="900" y2="80" stroke="#ED8B00" stroke-width="0.5"/>
        <line x1="0" y1="120" x2="900" y2="120" stroke="#ED8B00" stroke-width="0.5"/>
        <line x1="0" y1="160" x2="900" y2="160" stroke="#ED8B00" stroke-width="0.5"/>
        <line x1="0" y1="200" x2="900" y2="200" stroke="#ED8B00" stroke-width="0.5"/>
        <line x1="0" y1="240" x2="900" y2="240" stroke="#ED8B00" stroke-width="0.5"/>
        <line x1="0" y1="280" x2="900" y2="280" stroke="#ED8B00" stroke-width="0.5"/>
        <line x1="100" y1="0" x2="100" y2="310" stroke="#ED8B00" stroke-width="0.5"/>
        <line x1="200" y1="0" x2="200" y2="310" stroke="#ED8B00" stroke-width="0.5"/>
        <line x1="300" y1="0" x2="300" y2="310" stroke="#ED8B00" stroke-width="0.5"/>
        <line x1="400" y1="0" x2="400" y2="310" stroke="#ED8B00" stroke-width="0.5"/>
        <line x1="500" y1="0" x2="500" y2="310" stroke="#ED8B00" stroke-width="0.5"/>
        <line x1="600" y1="0" x2="600" y2="310" stroke="#ED8B00" stroke-width="0.5"/>
        <line x1="700" y1="0" x2="700" y2="310" stroke="#ED8B00" stroke-width="0.5"/>
        <line x1="800" y1="0" x2="800" y2="310" stroke="#ED8B00" stroke-width="0.5"/>
    </g>

    <g font-family="JetBrains Mono, Fira Code, monospace" font-size="11" clip-path="url(#heroBounds)">
        <text x="18" y="50" fill="#ED8B00" opacity="0.25">@SpringBootApplication<animate attributeName="opacity" values="0.25;0.5;0.25" dur="3.5s" repeatCount="indefinite"/></text>
        <text x="18" y="70" fill="#00BFFF" opacity="0.18">public class JvmEngine {<animate attributeName="opacity" values="0.18;0.35;0.18" dur="4s" begin="0.5s" repeatCount="indefinite"/></text>
        <text x="18" y="88" fill="#6DB33F" opacity="0.15">@KafkaListener(topics="events")<animate attributeName="opacity" values="0.15;0.3;0.15" dur="5s" begin="1s" repeatCount="indefinite"/></text>
        <text x="18" y="250" fill="#ED8B00" opacity="0.2">@Transactional<animate attributeName="opacity" values="0.2;0.4;0.2" dur="4.5s" begin="0.8s" repeatCount="indefinite"/></text>
        <text x="18" y="268" fill="#00BFFF" opacity="0.15">public void process(Event e) {<animate attributeName="opacity" values="0.15;0.3;0.15" dur="3.8s" begin="1.2s" repeatCount="indefinite"/></text>
        <text x="18" y="286" fill="#9CA3AF" opacity="0.12">eventBus.publish(transform(e));<animate attributeName="opacity" values="0.12;0.25;0.12" dur="5.2s" begin="0.3s" repeatCount="indefinite"/></text>
        <text x="620" y="60" fill="#6DB33F" opacity="0.2">record KafkaEvent(String id,<animate attributeName="opacity" values="0.2;0.38;0.2" dur="4.2s" begin="0.6s" repeatCount="indefinite"/></text>
        <text x="620" y="78" fill="#6DB33F" opacity="0.15">String type, Instant ts) {}<animate attributeName="opacity" values="0.15;0.3;0.15" dur="3.6s" begin="1.1s" repeatCount="indefinite"/></text>
        <text x="620" y="260" fill="#ED8B00" opacity="0.2">// TDD · Clean Architecture<animate attributeName="opacity" values="0.2;0.4;0.2" dur="5s" begin="0.4s" repeatCount="indefinite"/></text>
        <text x="620" y="278" fill="#00BFFF" opacity="0.15">// Observability · DDD<animate attributeName="opacity" values="0.15;0.3;0.15" dur="4.8s" begin="0.9s" repeatCount="indefinite"/></text>
    </g>

    <rect x="0" y="0" width="900" height="3" rx="3" fill="url(#lineGrad)"/>
    <g opacity="0.4">
        <line x1="850" y1="10" x2="890" y2="10" stroke="#ED8B00" stroke-width="1"/>
        <line x1="890" y1="10" x2="890" y2="50" stroke="#ED8B00" stroke-width="1"/>
    </g>
    <g opacity="0.4">
        <line x1="10" y1="260" x2="10" y2="300" stroke="#ED8B00" stroke-width="1"/>
        <line x1="10" y1="300" x2="50" y2="300" stroke="#ED8B00" stroke-width="1"/>
    </g>

    <text x="450" y="148" font-family="JetBrains Mono, Fira Code, monospace" font-size="44" font-weight="700" fill="#F0F6FC" text-anchor="middle" filter="url(#glow)" letter-spacing="2">Mathis Dulieu</text>
    <rect x="150" y="158" width="0" height="2" rx="1" fill="url(#lineGrad)">
        <animate attributeName="width" values="0;600" dur="1.2s" fill="freeze"/>
        <animate attributeName="x" values="450;150" dur="1.2s" fill="freeze"/>
    </rect>
    <text x="450" y="192" font-family="JetBrains Mono, Fira Code, monospace" font-size="16" fill="#ED8B00" text-anchor="middle" letter-spacing="3" font-weight="500">BACKEND JAVA DEVELOPER</text>
    <text x="450" y="228" font-family="JetBrains Mono, Fira Code, monospace" font-size="13" fill="#00BFFF" text-anchor="middle" opacity="0">Building distributed backend systems<animate attributeName="opacity" values="0;1;1;0;0" keyTimes="0;0.04;0.28;0.33;1" dur="12s" repeatCount="indefinite"/></text>
    <text x="450" y="228" font-family="JetBrains Mono, Fira Code, monospace" font-size="13" fill="#00BFFF" text-anchor="middle" opacity="0">Designing event-driven architectures<animate attributeName="opacity" values="0;1;1;0;0" keyTimes="0;0.04;0.28;0.33;1" dur="12s" begin="4s" repeatCount="indefinite"/></text>
    <text x="450" y="228" font-family="JetBrains Mono, Fira Code, monospace" font-size="13" fill="#00BFFF" text-anchor="middle" opacity="0">Writing clean and testable Java code<animate attributeName="opacity" values="0;1;1;0;0" keyTimes="0;0.04;0.28;0.33;1" dur="12s" begin="8s" repeatCount="indefinite"/></text>

    <rect x="50" y="308" width="800" height="1" fill="url(#rowLine)"/>

    <text x="450" y="340" font-family="JetBrains Mono, monospace" font-size="11" fill="#ED8B00" text-anchor="middle" letter-spacing="4" font-weight="600">ABOUT ME</text>
    <rect x="200" y="348" width="500" height="1" fill="url(#sectionLine)"/>

    <text x="450" y="390" font-family="JetBrains Mono, monospace" font-size="12" fill="#9CA3AF" text-anchor="middle">Focused on building reliable, scalable and maintainable backend systems.</text>
    <text x="450" y="426" font-family="JetBrains Mono, monospace" font-size="12" fill="#9CA3AF" text-anchor="middle">Currently working at <tspan fill="#ED8B00" font-weight="600">Lyreco Group</tspan><tspan fill="#9CA3AF"> while completing my Engineering Degree at </tspan><tspan fill="#ED8B00" font-weight="600">SUPINFO</tspan><tspan fill="#9CA3AF">.</tspan></text>
    <text x="450" y="462" font-family="JetBrains Mono, monospace" font-size="12" fill="#9CA3AF" text-anchor="middle">I enjoy designing systems around Java, Spring Boot, Kafka, clean architecture, testing and observability.</text>

    <rect x="50" y="498" width="800" height="1" fill="url(#rowLine)"/>

    <text x="450" y="530" font-family="JetBrains Mono, monospace" font-size="11" fill="#ED8B00" text-anchor="middle" letter-spacing="4" font-weight="600">TECH STACK</text>
    <rect x="200" y="538" width="500" height="1" fill="url(#sectionLine)"/>

    <g transform="translate(32,575) scale(0.375)">
        <path fill="#0074BD" d="M47.617 98.12s-4.767 2.774 3.397 3.71c9.892 1.13 14.947.968 25.845-1.092 0 0 2.871 1.795 6.873 3.351-24.439 10.47-55.308-.607-36.115-5.969zm-2.988-13.665s-5.348 3.959 2.823 4.805c10.567 1.091 18.91 1.18 33.354-1.6 0 0 1.993 2.025 5.132 3.131-29.542 8.64-62.446.68-41.309-6.336z"/><path fill="#EA2D2E" d="M69.802 61.271c6.025 6.935-1.58 13.17-1.58 13.17s15.289-7.891 8.269-17.777c-6.559-9.215-11.587-13.792 15.635-29.58 0 .001-42.731 10.67-22.324 34.187z"/><path fill="#0074BD" d="M102.123 108.229s3.529 2.91-3.888 5.159c-14.102 4.272-58.706 5.56-71.094.171-4.451-1.938 3.899-4.625 6.526-5.192 2.739-.593 4.303-.485 4.303-.485-4.953-3.487-32.013 6.85-13.743 9.815 49.821 8.076 90.817-3.637 77.896-9.468zM49.912 70.294s-22.686 5.389-8.033 7.348c6.188.828 18.518.638 30.011-.326 9.39-.789 18.813-2.474 18.813-2.474s-3.308 1.419-5.704 3.053c-23.042 6.061-67.544 3.238-54.731-2.958 10.832-5.239 19.644-4.643 19.644-4.643zm40.697 22.747c23.421-12.167 12.591-23.86 5.032-22.285-1.848.385-2.677.72-2.677.72s.688-1.079 2-1.543c14.953-5.255 26.451 15.503-4.823 23.725 0-.002.359-.327.468-.617z"/><path fill="#EA2D2E" d="M76.491 1.587S89.459 14.563 64.188 34.51c-20.266 16.006-4.621 25.13-.007 35.559-11.831-10.673-20.509-20.07-14.688-28.815C58.041 28.42 81.722 22.195 76.491 1.587z"/><path fill="#0074BD" d="M52.214 126.021c22.476 1.437 57-.8 57.817-11.436 0 0-1.571 4.032-18.577 7.231-19.186 3.612-42.854 3.191-56.887.874 0 .001 2.875 2.381 17.647 3.331z"/>
    </g>
    <g transform="translate(145,575) scale(2.0)">
        <path d="M22.394 6c-.167-.29-.398-.543-.652-.69L12.926.22c-.509-.294-1.34-.294-1.848 0L2.26 5.31c-.508.293-.923 1.013-.923 1.6v10.18c0 .294.104.62.271.91.167.29.398.543.652.69l8.816 5.09c.508.293 1.34.293 1.848 0l8.816-5.09c.254-.147.485-.4.652-.69.167-.29.27-.616.27-.91V6.91c.003-.294-.1-.62-.268-.91zM12 19.11c-3.92 0-7.109-3.19-7.109-7.11 0-3.92 3.19-7.11 7.11-7.11a7.133 7.133 0 016.156 3.553l-3.076 1.78a3.567 3.567 0 00-3.08-1.78A3.56 3.56 0 008.444 12 3.56 3.56 0 0012 15.555a3.57 3.57 0 003.08-1.778l3.078 1.78A7.135 7.135 0 0112 19.11zm7.11-6.715h-.79v.79h-.79v-.79h-.79v-.79h.79v-.79h.79v.79h.79zm2.962 0h-.79v.79h-.79v-.79h-.79v-.79h.79v-.79h.79v.79h.79z" fill="#00599C"/>
    </g>
    <g transform="translate(257,575) scale(2.0)">
        <path d="M.741 19.365h8.36s-1.598-7.291 3.693-10.243l.134-.066c1.286-.637 4.907-2.431 10.702 1.854.19-.159.37-.286.37-.286s-5.503-5.492-11.63-4.878c-3.079.275-6.867 3.079-9.09 6.783C1.058 16.233.741 19.365.741 19.365Zm8.804-.783a10.682 10.682 0 0 1-.127-1.333l1.143.412c.063.498.159.963.254 1.376l-1.27-.455Zm-7.799-4.317L.529 13.82c-.201.455-.423.984-.529 1.27l1.217.444c.137-.359.36-.878.529-1.269Zm7.831.296.857.677c.042-.413.116-.825.222-1.238l-.762-.603c-.137.391-.233.783-.317 1.164Zm2.042-2.646-.508-.762c.191-.243.413-.486.656-.709l.476.72a5.958 5.958 0 0 0-.624.751ZM4.19 8.878l.752.656c-.254.265-.498.551-.72.836l-.815-.698c.244-.265.508-.529.783-.794Zm9.799 1.027-.243-.73c.265-.117.571-.233.931-.339l.233.698a6.82 6.82 0 0 0-.921.371Zm3.122-.656.042-.667c.339.021.688.064 1.048.138l-.042.656a5.859 5.859 0 0 0-1.048-.127ZM8.942 6.392l-.476-.731c-.265.138-.54.286-.826.455l.487.741c.275-.169.54-.328.815-.465Zm9.217-.053.042-.709c-.095-.053-.36-.18-1.026-.371l-.043.699c.349.116.688.243 1.027.381ZM13.238 5.28h.106l-.212-.645c-.328 0-.666.021-1.016.063l.201.625a8.87 8.87 0 0 1 .921-.043Z" fill="#CC0000"/>
    </g>
    <g transform="translate(370,575) scale(2.0)">
        <path d="m23.693 10.7058-4.73-8.1844c-.4094-.7106-1.4166-1.2942-2.2402-1.2942H7.2725c-.819 0-1.8308.5836-2.2402 1.2942L.307 10.7058c-.4095.7106-.4095 1.873 0 2.5837l4.7252 8.189c.4094.7107 1.4166 1.2943 2.2402 1.2943h9.455c.819 0 1.826-.5836 2.2402-1.2942l4.7252-8.189c.4095-.7107.4095-1.8732 0-2.5838zM10.9763 5.7547c0-.5365.4377-.9742.9742-.9742s.9742.4377.9742.9742v5.8217c0 .5366-.4377.9742-.9742.9742s-.9742-.4376-.9742-.9742zm.9742 12.4294c-3.6427 0-6.6077-2.965-6.6077-6.6077.0047-2.0896.993-4.0521 2.6685-5.304a.8657.8657 0 0 1 1.2142.1788.8657.8657 0 0 1-.1788 1.2143c-2.1602 1.6048-2.612 4.6592-1.0072 6.8194 1.6049 2.1603 4.6593 2.612 6.8195 1.0072 1.2378-.9177 1.9673-2.372 1.9673-3.9157a4.8972 4.8972 0 0 0-1.9861-3.925c-.386-.2824-.466-.8284-.1836-1.2143.2824-.386.8283-.466 1.2143-.1835 1.6895 1.2471 2.6826 3.2238 2.6873 5.3228 0 3.6474-2.965 6.6077-6.6077 6.6077z" fill="#6DB33F"/>
    </g>
    <g transform="translate(482,575) scale(2.0)">
        <path d="M9.71 2.136a1.43 1.43 0 0 0-2.047 0h-.007a1.48 1.48 0 0 0-.421 1.042c0 .41.161.777.422 1.039l.007.007c.257.264.616.426 1.019.426.404 0 .766-.162 1.027-.426l.003-.007c.261-.262.421-.629.421-1.039 0-.408-.159-.777-.421-1.042H9.71zM8.683 22.295c.404 0 .766-.167 1.027-.429l.003-.008c.261-.261.421-.631.421-1.036 0-.41-.159-.778-.421-1.044H9.71a1.42 1.42 0 0 0-1.027-.432 1.4 1.4 0 0 0-1.02.432h-.007c-.26.266-.422.634-.422 1.044 0 .406.161.775.422 1.036l.007.008c.258.262.617.429 1.02.429zm7.89-4.462c.359-.096.683-.33.882-.684l.027-.052a1.47 1.47 0 0 0 .114-1.067 1.454 1.454 0 0 0-.675-.896l-.021-.014a1.425 1.425 0 0 0-1.078-.132c-.36.091-.684.335-.881.686-.2.349-.241.75-.146 1.119.099.363.33.691.675.896h.002c.346.203.737.239 1.101.144zm-6.405-7.342a2.083 2.083 0 0 0-1.485-.627c-.58 0-1.103.242-1.482.627-.378.385-.612.916-.612 1.507s.233 1.124.612 1.514a2.08 2.08 0 0 0 2.967 0c.379-.39.612-.923.612-1.514s-.233-1.122-.612-1.507zm-.835-2.51c.843.141 1.6.552 2.178 1.144h.004c.092.093.182.196.265.299l1.446-.851a3.176 3.176 0 0 1-.047-1.808 3.149 3.149 0 0 1 1.456-1.926l.025-.016a3.062 3.062 0 0 1 2.345-.306c.77.21 1.465.721 1.898 1.482v.002c.431.757.518 1.626.313 2.408a3.145 3.145 0 0 1-1.456 1.928l-.198.118h-.02a3.095 3.095 0 0 1-2.154.201 3.127 3.127 0 0 1-1.514-.944l-1.444.848a4.162 4.162 0 0 1 0 2.879l1.444.846c.413-.47.939-.789 1.514-.944a3.041 3.041 0 0 1 2.371.319l.048.023v.002a3.17 3.17 0 0 1 1.408 1.906 3.215 3.215 0 0 1-.313 2.405l-.026.053-.003-.005a3.147 3.147 0 0 1-1.867 1.436 3.096 3.096 0 0 1-2.371-.318v-.006a3.156 3.156 0 0 1-1.456-1.927 3.175 3.175 0 0 1 .047-1.805l-1.446-.848a3.905 3.905 0 0 1-.265.294l-.004.005a3.938 3.938 0 0 1-2.178 1.138v1.699a3.09 3.09 0 0 1 1.56.862l.002.004c.565.572.914 1.368.914 2.243 0 .873-.35 1.664-.914 2.239l-.002.009a3.1 3.1 0 0 1-2.21.931 3.1 3.1 0 0 1-2.206-.93h-.002v-.009a3.186 3.186 0 0 1-.916-2.239c0-.875.35-1.672.916-2.243v-.004h.002a3.1 3.1 0 0 1 1.558-.862v-1.699a3.926 3.926 0 0 1-2.176-1.138l-.006-.005a4.098 4.098 0 0 1-1.173-2.874c0-1.122.452-2.136 1.173-2.872h.006a3.947 3.947 0 0 1 2.176-1.144V6.289a3.137 3.137 0 0 1-1.558-.864h-.002v-.004a3.192 3.192 0 0 1-.916-2.243c0-.871.35-1.669.916-2.243l.002-.002A3.084 3.084 0 0 1 8.683 0c.861 0 1.641.355 2.21.932v.002h.002c.565.574.914 1.372.914 2.243 0 .876-.35 1.667-.914 2.243l-.002.005a3.142 3.142 0 0 1-1.56.864v1.692zm8.121-1.129l-.012-.019a1.452 1.452 0 0 0-.87-.668 1.43 1.43 0 0 0-1.103.146h.002c-.347.2-.58.529-.677.896-.095.365-.054.768.146 1.119l.007.009c.2.347.519.579.874.673.357.103.755.059 1.098-.144l.019-.009a1.47 1.47 0 0 0 .657-.885 1.493 1.493 0 0 0-.141-1.118" fill="#FFFFFF"/>
    </g>
    <g transform="translate(595,575) scale(2.0)">
        <path d="M23.02 10.59a8.578 8.578 0 0 0-.862-3.034 8.911 8.911 0 0 0-1.789-2.445c.337-1.342-.413-2.505-.413-2.505-1.292-.08-2.113.4-2.416.62-.052-.02-.102-.044-.154-.064-.22-.089-.446-.172-.677-.247-.231-.073-.47-.14-.711-.197a9.867 9.867 0 0 0-.875-.161C14.557.753 12.94 0 12.94 0c-1.804 1.145-2.147 2.744-2.147 2.744l-.018.093c-.098.029-.2.057-.298.088-.138.042-.275.094-.413.143-.138.055-.275.107-.41.166a8.869 8.869 0 0 0-1.557.87l-.063-.029c-2.497-.955-4.716.195-4.716.195-.203 2.658.996 4.33 1.235 4.636a11.608 11.608 0 0 0-.607 2.635C1.636 12.677.953 15.014.953 15.014c1.926 2.214 4.171 2.351 4.171 2.351.003-.002.006-.002.006-.005.285.509.615.994.986 1.446.156.19.32.371.488.548-.704 2.009.099 3.68.099 3.68 2.144.08 3.553-.937 3.849-1.173a9.784 9.784 0 0 0 3.164.501h.08l.055-.003.107-.002.103-.005.003.002c1.01 1.44 2.788 1.646 2.788 1.646 1.264-1.332 1.337-2.653 1.337-2.94v-.058c0-.02-.003-.039-.003-.06.265-.187.52-.387.758-.6a7.875 7.875 0 0 0 1.415-1.7c1.43.083 2.437-.885 2.437-.885-.236-1.49-1.085-2.216-1.264-2.354l-.018-.013-.016-.013a.217.217 0 0 1-.031-.02c.008-.092.016-.18.02-.27.011-.162.016-.323.016-.48v-.253l-.005-.098-.008-.135a1.891 1.891 0 0 0-.01-.13c-.003-.042-.008-.083-.013-.125l-.016-.124-.018-.122a6.215 6.215 0 0 0-2.032-3.73 6.015 6.015 0 0 0-3.222-1.46 6.292 6.292 0 0 0-.85-.048l-.107.002h-.063l-.044.003-.104.008a4.777 4.777 0 0 0-3.335 1.695c-.332.4-.592.84-.768 1.297a4.594 4.594 0 0 0-.312 1.817l.003.091c.005.055.007.11.013.164a3.615 3.615 0 0 0 .698 1.82 3.53 3.53 0 0 0 1.827 1.282c.33.098.66.14.971.137.039 0 .078 0 .114-.002l.063-.003c.02 0 .041-.003.062-.003.034-.002.065-.007.099-.01.007 0 .018-.003.028-.003l.031-.005.06-.008a1.18 1.18 0 0 0 .112-.02c.036-.008.072-.013.109-.024a2.634 2.634 0 0 0 .914-.415c.028-.02.056-.041.085-.065a.248.248 0 0 0 .039-.35.244.244 0 0 0-.309-.06l-.078.042c-.09.044-.184.083-.283.116a2.476 2.476 0 0 1-.475.096c-.028.003-.054.006-.083.006l-.083.002c-.026 0-.054 0-.08-.002l-.102-.006h-.012l-.024.006c-.016-.003-.031-.003-.044-.006-.031-.002-.06-.007-.091-.01a2.59 2.59 0 0 1-.724-.213 2.557 2.557 0 0 1-.667-.438 2.52 2.52 0 0 1-.805-1.475 2.306 2.306 0 0 1-.029-.444l.006-.122v-.023l.002-.031c.003-.021.003-.04.005-.06a3.163 3.163 0 0 1 1.352-2.29 3.12 3.12 0 0 1 .937-.43 2.946 2.946 0 0 1 .776-.101h.06l.07.002.045.003h.026l.07.005a4.041 4.041 0 0 1 1.635.49 3.94 3.94 0 0 1 1.602 1.662 3.77 3.77 0 0 1 .397 1.414l.005.076.003.075c.002.026.002.05.002.075 0 .024.003.052 0 .07v.065l-.002.073-.008.174a6.195 6.195 0 0 1-.08.639 5.1 5.1 0 0 1-.267.927 5.31 5.31 0 0 1-.624 1.13 5.052 5.052 0 0 1-3.237 2.014 4.82 4.82 0 0 1-.649.066l-.039.003h-.287a6.607 6.607 0 0 1-1.716-.265 6.776 6.776 0 0 1-3.4-2.274 6.75 6.75 0 0 1-.746-1.15 6.616 6.616 0 0 1-.714-2.596l-.005-.083-.002-.02v-.056l-.003-.073v-.096l-.003-.104v-.07l.003-.163c.008-.22.026-.45.054-.678a8.707 8.707 0 0 1 .28-1.355c.128-.444.286-.872.473-1.277a7.04 7.04 0 0 1 1.456-2.1 5.925 5.925 0 0 1 .953-.763c.169-.111.343-.213.524-.306.089-.05.182-.091.273-.135.047-.02.093-.042.138-.062a7.177 7.177 0 0 1 .714-.267l.145-.045c.049-.015.098-.026.148-.041.098-.029.197-.052.296-.076.049-.013.1-.02.15-.033l.15-.032.151-.028.076-.013.075-.01.153-.024c.057-.01.114-.013.171-.023l.169-.021c.036-.003.073-.008.106-.01l.073-.008.036-.003.042-.002c.057-.003.114-.008.171-.01l.086-.006h.023l.037-.003.145-.007a7.999 7.999 0 0 1 1.708.125 7.917 7.917 0 0 1 2.048.68 8.253 8.253 0 0 1 1.672 1.09l.09.077.089.078c.06.052.114.107.171.159.057.052.112.106.166.16.052.055.107.107.159.164a8.671 8.671 0 0 1 1.41 1.978c.012.026.028.052.04.078l.04.078.075.156c.023.051.05.1.07.153l.065.15a8.848 8.848 0 0 1 .45 1.34.19.19 0 0 0 .201.142.186.186 0 0 0 .172-.184c.01-.246.002-.532-.024-.856z" fill="#F46800"/>
    </g>
    <g transform="translate(707,575) scale(2.0)">
        <path d="M12 0C5.373 0 0 5.372 0 12c0 6.627 5.373 12 12 12s12-5.373 12-12c0-6.628-5.373-12-12-12zm0 22.46c-1.885 0-3.414-1.26-3.414-2.814h6.828c0 1.553-1.528 2.813-3.414 2.813zm5.64-3.745H6.36v-2.046h11.28v2.046zm-.04-3.098H6.391c-.037-.043-.075-.086-.111-.13-1.155-1.401-1.427-2.133-1.69-2.879-.005-.025 1.4.287 2.395.511 0 0 .513.119 1.262.255-.72-.843-1.147-1.915-1.147-3.01 0-2.406 1.845-4.508 1.18-6.207.648.053 1.34 1.367 1.387 3.422.689-.951.977-2.69.977-3.755 0-1.103.727-2.385 1.454-2.429-.648 1.069.168 1.984.894 4.256.272.854.237 2.29.447 3.201.07-1.892.395-4.652 1.595-5.605-.529 1.2.079 2.702.494 3.424.671 1.164 1.078 2.047 1.078 3.716a4.642 4.642 0 01-1.11 2.996c.792-.149 1.34-.283 1.34-.283l2.573-.502s-.374 1.538-1.81 3.019z" fill="#E6522C"/>
    </g>
    <g transform="translate(820,575) scale(2.0)">
        <path d="M13.983 11.078h2.119a.186.186 0 00.186-.185V9.006a.186.186 0 00-.186-.186h-2.119a.185.185 0 00-.185.185v1.888c0 .102.083.185.185.185m-2.954-5.43h2.118a.186.186 0 00.186-.186V3.574a.186.186 0 00-.186-.185h-2.118a.185.185 0 00-.185.185v1.888c0 .102.082.185.185.185m0 2.716h2.118a.187.187 0 00.186-.186V6.29a.186.186 0 00-.186-.185h-2.118a.185.185 0 00-.185.185v1.887c0 .102.082.185.185.186m-2.93 0h2.12a.186.186 0 00.184-.186V6.29a.185.185 0 00-.185-.185H8.1a.185.185 0 00-.185.185v1.887c0 .102.083.185.185.186m-2.964 0h2.119a.186.186 0 00.185-.186V6.29a.185.185 0 00-.185-.185H5.136a.186.186 0 00-.186.185v1.887c0 .102.084.185.186.186m5.893 2.715h2.118a.186.186 0 00.186-.185V9.006a.186.186 0 00-.186-.186h-2.118a.185.185 0 00-.185.185v1.888c0 .102.082.185.185.185m-2.93 0h2.12a.185.185 0 00.184-.185V9.006a.185.185 0 00-.184-.186h-2.12a.185.185 0 00-.184.185v1.888c0 .102.083.185.185.185m-2.964 0h2.119a.185.185 0 00.185-.185V9.006a.185.185 0 00-.184-.186h-2.12a.186.186 0 00-.186.186v1.887c0 .102.084.185.186.185m-2.92 0h2.12a.185.185 0 00.184-.185V9.006a.185.185 0 00-.184-.186h-2.12a.185.185 0 00-.184.185v1.888c0 .102.082.185.185.185M23.763 9.89c-.065-.051-.672-.51-1.954-.51-.338.001-.676.03-1.01.087-.248-1.7-1.653-2.53-1.716-2.566l-.344-.199-.226.327c-.284.438-.49.922-.612 1.43-.23.97-.09 1.882.403 2.661-.595.332-1.55.413-1.744.42H.751a.751.751 0 00-.75.748 11.376 11.376 0 00.692 4.062c.545 1.428 1.355 2.48 2.41 3.124 1.18.723 3.1 1.137 5.275 1.137.983.003 1.963-.086 2.93-.266a12.248 12.248 0 003.823-1.389c.98-.567 1.86-1.288 2.61-2.136 1.252-1.418 1.998-2.997 2.553-4.4h.221c1.372 0 2.215-.549 2.68-1.009.309-.293.55-.65.707-1.046l.098-.288Z" fill="#2496ED"/>
    </g>
    <g transform="translate(32,658) scale(2.0)">
        <path d="M10.204 14.35l.007.01-.999 2.413a5.171 5.171 0 0 1-2.075-2.597l2.578-.437.004.005a.44.44 0 0 1 .484.606zm-.833-2.129a.44.44 0 0 0 .173-.756l.002-.011L7.585 9.7a5.143 5.143 0 0 0-.73 3.255l2.514-.725.002-.009zm1.145-1.98a.44.44 0 0 0 .699-.337l.01-.005.15-2.62a5.144 5.144 0 0 0-3.01 1.442l2.147 1.523.004-.002zm.76 2.75l.723.349.722-.347.18-.78-.5-.623h-.804l-.5.623.179.779zm1.5-3.095a.44.44 0 0 0 .7.336l.008.003 2.134-1.513a5.188 5.188 0 0 0-2.992-1.442l.148 2.615.002.001zm10.876 5.97l-5.773 7.181a1.6 1.6 0 0 1-1.248.594l-9.261.003a1.6 1.6 0 0 1-1.247-.596l-5.776-7.18a1.583 1.583 0 0 1-.307-1.34L2.1 5.573c.108-.47.425-.864.863-1.073L11.305.513a1.606 1.606 0 0 1 1.385 0l8.345 3.985c.438.209.755.604.863 1.073l2.062 8.955c.108.47-.005.963-.308 1.34zm-3.289-2.057c-.042-.01-.103-.026-.145-.034-.174-.033-.315-.025-.479-.038-.35-.037-.638-.067-.895-.148-.105-.04-.18-.165-.216-.216l-.201-.059a6.45 6.45 0 0 0-.105-2.332 6.465 6.465 0 0 0-.936-2.163c.052-.047.15-.133.177-.159.008-.09.001-.183.094-.282.197-.185.444-.338.743-.522.142-.084.273-.137.415-.242.032-.024.076-.062.11-.089.24-.191.295-.52.123-.736-.172-.216-.506-.236-.745-.045-.034.027-.08.062-.111.088-.134.116-.217.23-.33.35-.246.25-.45.458-.673.609-.097.056-.239.037-.303.033l-.19.135a6.545 6.545 0 0 0-4.146-2.003l-.012-.223c-.065-.062-.143-.115-.163-.25-.022-.268.015-.557.057-.905.023-.163.061-.298.068-.475.001-.04-.001-.099-.001-.142 0-.306-.224-.555-.5-.555-.275 0-.499.249-.499.555l.001.014c0 .041-.002.092 0 .128.006.177.044.312.067.475.042.348.078.637.056.906a.545.545 0 0 1-.162.258l-.012.211a6.424 6.424 0 0 0-4.166 2.003 8.373 8.373 0 0 1-.18-.128c-.09.012-.18.04-.297-.029-.223-.15-.427-.358-.673-.608-.113-.12-.195-.234-.329-.349-.03-.026-.077-.062-.111-.088a.594.594 0 0 0-.348-.132.481.481 0 0 0-.398.176c-.172.216-.117.546.123.737l.007.005.104.083c.142.105.272.159.414.242.299.185.546.338.743.522.076.082.09.226.1.288l.16.143a6.462 6.462 0 0 0-1.02 4.506l-.208.06c-.055.072-.133.184-.215.217-.257.081-.546.11-.895.147-.164.014-.305.006-.48.039-.037.007-.09.02-.133.03l-.004.002-.007.002c-.295.071-.484.342-.423.608.061.267.349.429.645.365l.007-.001.01-.003.129-.029c.17-.046.294-.113.448-.172.33-.118.604-.217.87-.256.112-.009.23.069.288.101l.217-.037a6.5 6.5 0 0 0 2.88 3.596l-.09.218c.033.084.069.199.044.282-.097.252-.263.517-.452.813-.091.136-.185.242-.268.399-.02.037-.045.095-.064.134-.128.275-.034.591.213.71.248.12.556-.007.69-.282v-.002c.02-.039.046-.09.062-.127.07-.162.094-.301.144-.458.132-.332.205-.68.387-.897.05-.06.13-.082.215-.105l.113-.205a6.453 6.453 0 0 0 4.609.012l.106.192c.086.028.18.042.256.155.136.232.229.507.342.84.05.156.074.295.145.457.016.037.043.09.062.129.133.276.442.402.69.282.247-.118.341-.435.213-.71-.02-.039-.045-.096-.065-.134-.083-.156-.177-.261-.268-.398-.19-.296-.346-.541-.443-.793-.04-.13.007-.21.038-.294-.018-.022-.059-.144-.083-.202a6.499 6.499 0 0 0 2.88-3.622c.064.01.176.03.213.038.075-.05.144-.114.28-.104.266.039.54.138.87.256.154.06.277.128.448.173.036.01.088.019.13.028l.009.003.007.001c.297.064.584-.098.645-.365.06-.266-.128-.537-.423-.608zM16.4 9.701l-1.95 1.746v.005a.44.44 0 0 0 .173.757l.003.01 2.526.728a5.199 5.199 0 0 0-.108-1.674A5.208 5.208 0 0 0 16.4 9.7zm-4.013 5.325a.437.437 0 0 0-.404-.232.44.44 0 0 0-.372.233h-.002l-1.268 2.292a5.164 5.164 0 0 0 3.326.003l-1.27-2.296h-.01zm1.888-1.293a.44.44 0 0 0-.27.036.44.44 0 0 0-.214.572l-.003.004 1.01 2.438a5.15 5.15 0 0 0 2.081-2.615l-2.6-.44-.004.005z" fill="#326CE5"/>
    </g>
    <g transform="translate(145,658) scale(0.375)">
        <path fill="#d33833" d="M108.893 61.68c0 25.36-20.099 45.918-44.892 45.918-24.794 0-44.893-20.558-44.893-45.918s20.1-45.92 44.893-45.92 44.892 20.56 44.892 45.92"/><path fill="#ef3d3a" d="M20.938 73.052S17.688 25.167 61.81 23.8l-3.078-5.13-23.943 8.037-6.84 7.867-5.986 11.459-3.42 13.339 1.025 8.893"/><path fill="#231f20" d="M33.253 30.355c-7.876 8.06-12.75 19.186-12.75 31.496 0 12.307 4.874 23.436 12.75 31.494 7.88 8.057 18.74 13.03 30.747 13.03 12.007 0 22.867-4.973 30.747-13.03 7.876-8.058 12.751-19.187 12.751-31.494 0-12.31-4.875-23.437-12.751-31.496C86.867 22.3 76.007 17.327 64 17.326c-12.006.001-22.867 4.973-30.747 13.03zM31.26 95.294c-8.37-8.561-13.546-20.392-13.546-33.443 0-13.053 5.176-24.883 13.546-33.444 8.37-8.563 19.954-13.87 32.74-13.869 12.788-.002 24.374 5.306 32.741 13.869 8.372 8.561 13.548 20.392 13.547 33.444 0 13.05-5.175 24.882-13.547 33.443-8.367 8.562-19.953 13.87-32.74 13.87-12.787 0-24.372-5.308-32.74-13.87"/><path fill="#f0d6b7" d="m82.898 61.934-6.841 1.026-9.235 1.026-5.986.171-5.815-.17-4.446-1.369-3.934-4.275-3.078-8.722-.684-1.881-4.105-1.368-2.394-3.934-1.71-5.644 1.881-4.96 4.446-1.538 3.592 1.71 1.71 3.762 2.053-.342.683-.855-.683-3.933-.172-4.96 1.026-6.84-.04-3.908 3.119-4.985 5.472-3.934 9.578-4.104 10.603 1.539 9.235 6.67 4.276 6.84 2.736 4.96.684 12.313-2.053 10.604-3.762 9.405-3.591 4.96"/><path fill="#335061" d="m88.027 56.975-4.103 4.105v15.904l-3.58 14.66-1.721.047 1.367 16.418 6.498-.855L84.95 91.52l-2.902.079 7.863-.422s3.932-9.919 3.932-10.432c0-.513 3.422-14.365 3.422-14.365l-7.698-8.037-1.539-1.37zm-41.215 2.564-4.275 1.711-13.682 9.406.856 2.737 3.934 11.628 1.709 19.327 1.197 2.05 17.101 5.817 1.028-1.2-2.053-14.365v-4.103l24.455-1.027 1.88-1.026-14.876-7.012 2.736-5.3-3.933 1.367-1.54-1.881-2.052-8.893-1.711-.513-3.762-1.198-3.25-2.906-3.761-4.619z"/><path fill="#6d6b6d" d="m36.551 31.835 4.446-1.54 3.592 1.711 1.71 3.762 2.053-.342.513-2.052-1.026-3.933 1.026-9.407-.856-5.13 3.079-3.592 6.67-5.301-1.882-2.565-9.406 4.617-3.933 3.079-2.224 4.788-3.42 4.617-1.026 5.473.684 5.815"/><path fill="#dcd9d8" d="M59.445 4.021c-1.172-.012-2.543.108-2.543.108L45.787 8.406l-4.277 4.276-1.881 3.42 3.934-.342s2.565-6.328 12.826-9.406c6.413-1.924 5.01-2.312 3.056-2.333zM48.01 14.904l-9.406 2.223-2.737 8.893.684 5.814 1.88-1.195s-3.591-11.974 10.09-13.684l-.511-2.05z"/><path fill="#f7e4cd" d="M69.986.475a11.318 11.318 0 0 0-3.85.748c-10.26 3.933-17.785 11.115-17.615 15.732.292 7.864.172 7.87.172 7.87S51.601 9.774 66.31 6.866c12.108-2.393 18.468.512 20.863 3.248 0 0-8.25-9.82-17.186-9.64zm18.328 11.35c-.545-.003-4.913.108-5.074 4.277 0 0 0 .683.342 1.367 0 0 3.934-4.447 6.328-2.053l-1.539-3.59s-.02-.002-.057-.002zm-25.185 2.01c-.84.02-1.876.371-3.149 1.24-3.762 2.565-3.42 6.157-2.736 6.841.684.684.499 2.06 1.02 1.115.52-.945.349-4.022 2.23-4.877 1.881-.855 4.966-1.812 6.16-.222 0 0-.522-4.166-3.525-4.096zm26.437 10.476s-2.818.594-3.078 3.078c-.26 2.483 3.079.512 3.592.341l-.514-3.42zm-20.693.171s-3.762.513-3.762 2.907 4.276 2.223 5.473 1.197l-1.711-4.104zM38.432 30.64 34.5 34.742l.684 5.131 2.05 5.3 2.225.686c-3.25-3.933-1.711-6.671-1.027-10.433.683-3.763 7.183.172 7.183.172l-.172-2.567-2.564-2.05-4.447-.342zm38.609 7.847c-1.126-.05-1.556 3.635-1.648 4.586.31-.92 3.171-2.77 3.171-2.77s0-1.396-1.396-1.794a.549.549 0 0 0-.127-.022zm-1.648 4.586a.394.394 0 0 0-.02.221s.006-.08.02-.22zm-29.248 1.301-2.24 2.17.513 7.525 5.473 8.551s6.143 1.386 5.472.856c-7.353-5.815-7.866-16.59-8.037-17.788-.17-1.196-1.181-1.314-1.181-1.314zm19.244 2.549c-.675.01-1.122.228-1.248.396-.427.57.457 3.672.457 3.672l.855.172c-.17-3.421 1.881-3.764 1.881-3.764-.758-.364-1.42-.484-1.945-.476z"/><path fill="#49728b" d="m45.615 59.37-16.76 11.286 1.881 5.303 4.448 19.152.17 10.092 2.394.854c3.42-8.21-3.248-34.717-3.248-34.717l16.074-7.182-4.959-4.789zm6.614 19.448-.458 1.073s-.341 3.078-.341 3.933c0 .856.341 8.04.341 8.04h2.737V81.601l-2.28-2.784zm.056 14.584-7.695.342 2.222 1.54 5.473.855v-2.737zm35.742-36.427-3.248 3.591L96.75 69.46l.342-4.104-9.065-8.38zm-3.42 33.52-5.984 1.196.854 4.79c2.223 1.026 5.986-1.711 5.986-1.711l-.856-4.276z"/><path fill="#fff" d="M50.574 62.62v1.538l2.174 2.395 6.84 3.078.172-5.129-4.739-.516-4.447-1.367zm50.059 24.284-5.473 1.711-5.25 2.563-2.789-.51-2.172.853 1.832 14.368 6.668-1.883 12.656-.684 1.881-5.814-3.42-10.09-3.933-.514zm-22.01 4.787-9.97.002-16.026.854.291 7.869 1.762 10.6 3.54 14.369 7.866 1.709 12.998-1.026.17-2.566-1.54-13.852.909-17.959zm1.317-1.366-3.763-9.577-3.934-5.644s.855-2.394 2.053-2.394h3.933l3.762 1.368-.341 6.328-1.71 9.92"/><path fill="#dcd9d8" d="m52.115 65.014-.513.685 2.908 2.051 4.787 1.025-.17-2.05c-1.71.513-7.012-1.711-7.012-1.711zm23.77 7.353-3.932.512 6.67 15.734 1.367.172.684-1.71s-4.79-9.236-4.79-10.604c0 0 .856-2.052 2.053-1.54 1.198.514 3.764 1.882 3.764 1.882v-3.249l-5.816-1.197zm16.248 17.957-2.223.854 1.881 9.406c-.684-.171-5.13 1.883-5.13 1.883l.51 2.736 1.884-.685 5.984-.854 1.711 2.223 5.13.17 3.079-.684 2.736-4.103-.172-3.08-1.88-5.473c.513 4.104-1.54 8.039-1.54 8.039-.855 0-10.431-.514-10.431-.514 0-1.026-1.54-9.918-1.54-9.918zm-13.17.17-2.565 1.027s-.854 17.787 1.711 30.442c0 0-5.13 3.249-12.656 4.103l14.365-.513 1.711-1.026-2.052-28.047-.514-5.986zm4.47 18.297c-.736.004-1.83.526-2.603.475-.113 2.701.266 7.033.393 9.867 1.796.002 2.565-.392 3.906-.844.151-3.335-1.057-6.422-1.404-9.467a1.105 1.105 0 0 0-.291-.031z"/><path fill="#d33833" d="M84.777 63.818c-2.192.102-5.148 2.897-6.525 3.387.178.512.47.917.492 1.57.965-.238 2.14-.075 2.977.336-.968.108-2.038.102-2.678.563-.235.677.055 1.6-.102 2.54 2.296.648 4.919.994 7.82 1.079.566-.733.758-2.133.69-3.518-.08-1.67-.519-5.104-1.55-5.705-.34-.197-.718-.27-1.124-.252zm-22.535.748c-2.324.05-2.082 4.108-1.969 6.592.095 2.098 1.188 4.318 1.66 5.713.224.65.274 1.342.83 1.47.984.23 4.23-1.067 5.155-1.571 1.955-1.066 3.473-2.76 5.133-3.897l.062-1.658c-.998-.498-2.15-.852-3.617-.916.995-.5 2.457-.493 3.363-1.088l.026-.662c-1.654-.127-2.285-.864-3.375-1.461-1.784-.974-4.464-2.037-6.768-2.477a2.4 2.4 0 0 0-.5-.045zm13.43 3.457c-.442.004-.969.171-1.57.573-.114 1.259.18 1.67.433 3.115 3.493 1.093 3.525-3.704 1.137-3.688z"/><path fill="#ef3d3a" d="m84.557 62.621-6.498 3.762-.344 1.88v3.762l2.394.856s-1.197-1.71-.341-2.223c.855-.513 1.711 0 2.224-.855.513-.856 0-1.369.17-2.395.171-1.026 1.026-1.196 1.881-1.367.855-.17 3.25-.513 3.592.342l-1.026-3.078zm-21.536 1.03c-.847-.018-1.619.122-2.185.507-4.021 2.735-.78 9.056 1.19 12.774a551.56 551.56 0 0 0-.538-6.409c-.362-3.98.957-3.285 4.408-3.285.528 0 3.245.628 3.44 1.026.933 1.905-1.56 1.481 1.074 2.918 2.224 1.212 6.152-.737 5.254-3.432-.503-.6-2.62-.187-3.379-.58l-4.008-2.078c-1.168-.607-3.392-1.403-5.256-1.442Zm-.996 13.28c.042.532.086 1.063.127 1.594l.612-.183c-.204-.405-.46-.883-.739-1.41z"/><path fill="#231f20" d="M67.565.006c-3.59.068-7.101.665-10.027 1.742-2.175.8-4.282 1.516-6.192 2.638-5.111 3-10.537 5.008-12.052 11.047-3.734 1.672-4.86 6.451-4.672 11.997.036 1.081.623 2.432.42 3.449-.104.516-.804 1.177-.944 1.513-1.79 4.267-.355 9.876 1.713 12.909 1.25 1.832 3.32 3.457 6.05 3.888.109 1.635.502 3.042 1.257 4.699.478 1.048 2.263 2.932 1.606 4.269-.33.674-3.237 2.137-4.201 2.716-3.255 1.952-5.614 3.149-8.619 5.312-1.944 1.4-4.985 1.58-4.505 4.808.323 2.178 1.563 4.878 2.272 7.062.768 2.357 1.868 4.516 2.5 6.962 1.405 5.451 1.698 10.587 2.04 15.911.134 2.085-.088 4.291.453 5.442.558 1.19 2.626 1.57 4.12 2.264 4.315 1.995 8.893 5.042 14.552 4.437 1.349 4.536 2.624 9.367 4.243 13.34 5.803 2.086 14.964 1.76 20.997 1.035 1.834-.222 3.769-1.127 4.2-2.717-.129-.98-.272-1.95-.21-3.109 1.886-.39 4.453-.712 4.868-2.8.582-2.928-1.849-7.123-1.038-10.336 1.092-.354 2.258-.631 2.084-2.355 1.84-.958 4.023-1.172 6.353-1.082.3.58.727 1.138 1.111 1.457 3.264.656 6.425.71 9.135-.174 3.067-1.002 4.53-7.275 3.829-10.26-.498-2.115-1.624-5.58-2.584-7.628-2.601-5.56-10.353-2.07-14.502-.008 2.013-5.295 3.744-10.785 5.52-16.725.53-1.78 1.578-4.303 1.343-6.147-.22-1.734-2.924-3.556-4.347-4.93-.791-.762-4.479-3.562-4.693-4.61-.207-1.014 1.504-3.311 2.054-4.46.79-1.644 1.356-3.656 1.745-5.025 2.9-10.196 3.195-24.204-.951-32.586-1.57-3.175-5.96-7.56-8.705-9.637C79.74 1.254 73.546-.106 67.565.006Zm.478 2.84C72.89 2.799 78.28 4.509 81.93 6.568c3.05 1.72 5.3 5.048 7.446 7.817-3.009-.893-5.57.642-5.103 3.124 2.519-2.309 6.822-.025 8.095 2.528 1.217 2.44 1.209 6.057 1.396 9.685.453 8.798-1.61 17.875-6.031 24.234-1.182 1.698-2.174 3.554-3.836 4.723-4.006 2.813-10.095 5.363-15.309 3.614-6.89-2.312-10.02-6.903-13.81-12.16.103 2.888 2.134 5.258 4.14 7.467 1.745 1.925 3.851 4.1 6.117 4.998-1.89-.444-4.792-.583-5.58 1.114-4.41-.293-8.508-.744-10.594-3.733-1.644-2.356-3.314-6.363-4.063-9.458-.153-.636-.415-1.99-.351-2.337.246-1.343 2.638-1.933 1.697-3.81-1.736-.016-2.127 1.58-3.72 1.738-4.125.408-7.035-5.467-6.848-9.012.159-3.014 2.707-5.898 6.192-5.517 2.463.27 3.3 2.958 3.778 5.35 1.42.076 3.471-.061 4.143-1.169-.097-2.703-1.352-4.871-1.266-7.355.162-4.668 2.705-8.88.743-13.478 2.1-4.764 8.261-8.524 12.818-10.797 1.765-.88 3.856-1.264 6.06-1.286zM55.505 5.192c.198.032.38.186.556.374-.03.811-.83.794-1.37 1.054-.84 1.033-2.068 1.516-3.09 2.648-1.049 1.16-2.222 4.276-3.612 4.62-.697.174-1.493-.12-2.1-.08-1.605.101-2.735.923-4.363 1.159 2.102-4.595 8.659-8.313 13.774-9.762a.468.468 0 0 1 .205-.013zm8.74 9.973c-2.637.003-5.64 2.822-6.423 4.973-.318.874-.82 2.59.441 2.895 1.413-3.149 3.729-6.185 8.39-5.1.895-1.471-.705-2.552-1.887-2.73a3.477 3.477 0 0 0-.522-.038zm-16.656.48c1.802 4.586-1.293 10.036-.14 15.051.353 1.536 1.574 3.92-.376 3.972.051-4.37-5.37-7.143-9.455-4.574-.273-3.314-.746-7.973 1.514-10.459 2.085-2.296 4.959-3.725 8.457-3.99zm41.776 7.597c-.149 2.517.786 4.032 1.435 5.812-1.122.706-3.305.266-4.57.819-.09 3.723 5.76 1.888 6.65-.185-1.33-1.932-2.241-4.25-3.295-6.437l-.22-.01zm-20.325.057c-.692 1.964 1.188 5.298 2.242 6.984-1.373 1.333-3.842.226-5.679.14-1.753 2.769 3.423 3.29 5.644 2.634.608-.179 1.66-1.09 1.805-1.5.617-1.733-.627-2.493-1.267-3.117-1.42-1.384-1.746-3.31-2.745-5.141zm10.549 1.81c-.134-.018-.295.03-.488.17-.125 4.616 3.305 8.437 5.863 11.52 1.25 1.505 2.756 2.365 1.369 4.703-2.236.85-5.855 3.285-8.964 2.753-1.65-.282-1.278-2.155-1.87-3.173-1.138 1.497-.692 3.762.48 4.78 5.479.542 9.208-1.794 12.552-3.943-.133-.842 1.012-2.36.694-3.626-.11-.436-1.102-1.068-1.704-1.727-2.453-2.675-5.814-6.672-7.15-9.798-.12-.28-.201-1.583-.782-1.66zm-38.98 8.635c-1.267-.02-2.415.815-2.686 2.783.562-.368 1.015-1.415 2.028-.917-.89 1.737-.676 5.12.535 6.22-.007-2.062-.328-5.587 1.43-5.48 1.231.074 1.48 2.71 2.528 3.308.723-3.478-1.722-5.882-3.835-5.914zm50.051 10.36c-2.673 1.22-4.83 2.997-8.322 3.332-.169.577-.097 2.033-.004 2.99 4.567-.095 6.77-3.358 8.326-6.321zm-21.884 1.921c1.335 3.573 7.353 4.833 12.443 4.579-.008-1.058-.003-2.13-.215-2.998-3.96.116-9.315-.049-12.228-1.58zm-.553 2.858c-2.573.003-.403 1.434.033 1.994.902 1.16 1.96 3.139 3.608 4.015 2.598 1.38 7.758.801 9.63.04.692-.28 1.25-1.057 1.507-1.713-5.84.14-12.763.722-14.778-4.336zm19.436 9.83c2 1.611 3.208 3.127 5.126 4.85 1.04.933 3.088 2.051 3.295 3.56.115.842-.401 2.905-.591 3.852-.84 4.154-2.73 9.642-4.53 13.995-.654 1.582-1.28 3.56-2.143 3.902-2.364.936-5.233-.091-7.242 1.16 2.7-4.685 5.64-9.111 8.286-13.852-.403-.94-1.391-1.341-1.678-2.388 1.858-3.509 1.004-14.403-3.738-12.103.663-.974 2.404-1.778 3.215-2.976zm-41.724 2.48c.431-.17 3.577 3.923 4.042 4.255 2.55 1.81 5.716 3.24 8.677 4.653.181 1.359.6 3.12 1.338 5.476.813 2.602 1.484 6.274 4.922 4.398-.327 1.486-2.237 2.408-1.71 4.141.33 1.087 3.94 2.43 5.084 3.076 2.111 1.19 4.037 1.848 5.659 2.544-7.37.202-14.291.802-21.102 1.729-.816-1.264-.487-3.212-.573-5.225-.094-2.186.815-7.114-.044-7.42-.971-.345-1.153 1.623-1.188 2.057-.182 2.308 1.099 7.195-.164 9.958-1.382-.391-2.063-1.43-3.358-1.902-.508 1.6 1.052 1.677.892 2.693-.212 1.343-2.757.22-2.743 2.217 1.657.266 4.199-.515 5.97.232.463 5.433 1.207 10.581 2.022 16.352-7.048-.366-11.61-3.868-16.805-6.297-.323-11.49-2.154-23.41-6.688-33.14 4.756-3.67 10.078-7.552 15.77-9.796zm39.082 2.626c.316.015.613.094.884.252 1.032.602 1.471 4.036 1.551 5.706.067 1.385-.126 2.783-.69 3.517-2.902-.085-5.524-.43-7.82-1.078.157-.94-.135-1.865.1-2.543.639-.46 1.711-.452 2.678-.56-.836-.412-2.01-.575-2.975-.337-.023-.654-.316-1.058-.493-1.57 1.427-.509 4.554-3.496 6.765-3.387zm-5.2.127c-1.218.794-2.255 1.787-3.424 2.635-2.593.129-4.008-.179-5.913-1.668.03-.12.222-.066.23-.213 2.775 1.237 6.304-.504 9.106-.754zm-27.347.049c1.447 1.005 4.247.757 6.378 1.131.11.683-.442 1.58-.432 2.531-1.793-.11-7.427-2.16-5.946-3.662zm9.772.573c.155-.004.321.011.5.045 2.304.44 4.984 1.502 6.768 2.477 1.09.596 1.721 1.332 3.375 1.46-.007.22-.017.44-.025.662-.906.595-2.369.588-3.363 1.088 1.466.064 2.62.417 3.618.915l-.065 1.659c-1.661 1.137-3.178 2.83-5.133 3.896-.925.504-4.17 1.802-5.153 1.572-.557-.129-.607-.82-.83-1.47-.473-1.395-1.564-3.614-1.66-5.712-.113-2.485-.356-6.545 1.968-6.592zm13.294 3.463c.137-.011.267-.007.39.011 2.126.313 1.972 4.722-1.392 3.67-.253-1.444-.546-1.856-.433-3.115.542-.361 1.022-.533 1.435-.566zm1.936 5.014c1.218.13 2.182 1.81 3.92 1.7-.279 4.532-.133 9.08-1.398 13.232-2.357-4.322-3.744-9.54-6.795-13.217.322-.342.61-.721.926-1.071 1.382.578 2.284-.758 3.347-.644zm7.008 1.442c1.678-.013 3.052 1.084 3.807 2.297-2.364 4.05-4.626 8.208-7.43 11.78 1.175-3.458 1.679-9.245 1.857-13.657a4.222 4.222 0 0 1 1.766-.42zM71.71 76.03c2.8 3.554 4.504 8.125 6.38 12.537-4.432-1.336-8.96-3.504-12.844-5.702.762-3.304 3.75-5.016 6.464-6.835zm29.511 11.728c1.217.03 2.426 1.018 2.955 1.819.956 1.444 1.849 5.695 2.35 7.952.747 3.359-.932 6.629-3.603 7.277v.001c-1.944.472-4.926.596-6.199-.019 1.558-.851 3.899-.856 5.702-1.44-2.583-1.112-6.405-.064-9.511-.258-.375-3.835-.658-7.993-1.567-11.02 1.813-1.927 6.193-2.39 8.68-3.981a2.077 2.077 0 0 1 1.193-.331zm-.211 3.578c-3.183.094-5.67.937-7.09 2.938 2.583.165 4.443-2.408 7.09-2.938zm-12.54.785c.225.01.447.035.66.083 1.692 2.91 2.056 7.749 2 11.261-1.055.204-1.74.808-3.02.768-.327-4.001-1.256-8.208-1.638-12.02.61-.012 1.32-.12 1.997-.092zm-19.603.043c3.34-.054 6.58.142 9.385.726.685 4.453.43 8.845.93 13.21.662 5.808.166 12.434 1.3 17.876-6.173 1.913-14.59 1.728-21.574-.392-3.147-9.643-4.863-18.796-6.047-29.685 4.587-.858 10.437-1.645 16.006-1.735zm14.824.384c1.103 3.987 1.037 9.06 1.579 13.567-1.668.366-2.888.545-4.683.815-.357-4.682-.63-9.295-.566-13.971 1.272-.426 2.394-.4 3.67-.411zm14.486 2.296c-1.26.016-2.394.29-2.88 1.032 2.19.18 4.722-.17 6.88-.398-.984-.34-2.572-.653-4-.634zm-.361 3.24c-1.128.014-2.123.228-2.634.777 2.304.193 5.318.241 7.743.189-.983-.458-3.23-.99-5.11-.966zM83.098 108.82c.236-.037.45-.045.627.002.348 3.045 1.555 6.131 1.404 9.466-1.34.452-2.11.848-3.907.845-.126-2.834-.506-7.166-.392-9.868.662.044 1.561-.334 2.268-.445z"/><path fill="#81b0c4" d="M84.48 74.486a4.225 4.225 0 0 0-1.767.42c-.178 4.412-.68 10.199-1.856 13.656 2.805-3.571 5.066-7.73 7.43-11.779-.756-1.213-2.129-2.31-3.807-2.297zM71.71 76.03c-2.714 1.82-5.7 3.532-6.463 6.836 3.884 2.198 8.412 4.365 12.844 5.701-1.876-4.41-3.58-8.982-6.381-12.537z"/><path fill="#f0d6b7" d="M79.817 63.945c-1.218.795-2.255 1.787-3.424 2.636-2.593.128-4.008-.18-5.913-1.669.031-.12.223-.066.23-.213 2.775 1.237 6.304-.504 9.107-.754"/><path fill="#1d1919" d="M79.135 76.728a.94.94 0 1 1-1.881 0 .94.94 0 0 1 1.881 0m.941 4.361a.94.94 0 1 1-1.882 0 .94.94 0 0 1 1.882 0"/>
    </g>
    <g transform="translate(370,658) scale(2.0)">
        <path d="M10.984 13.836a.5.5 0 0 1-.353-.146l-.745-.743a.5.5 0 1 1 .706-.708l.392.391 1.181-1.18a.5.5 0 0 1 .708.707l-1.535 1.533a.504.504 0 0 1-.354.146zm9.353-.147l1.534-1.532a.5.5 0 0 0-.707-.707l-1.181 1.18-.392-.391a.5.5 0 1 0-.706.708l.746.743a.497.497 0 0 0 .706-.001zM4.527 7.452l2.557-1.585A1 1 0 0 0 7.09 4.17L4.533 2.56A1 1 0 0 0 3 3.406v3.196a1.001 1.001 0 0 0 1.527.85zm2.03-2.436L4 6.602V3.406l2.557 1.61zM24 12.5c0 1.93-1.57 3.5-3.5 3.5a3.503 3.503 0 0 1-3.46-3h-2.08a3.503 3.503 0 0 1-3.46 3 3.502 3.502 0 0 1-3.46-3h-.558c-.972 0-1.85-.399-2.482-1.042V17c0 1.654 1.346 3 3 3h.04c.244-1.693 1.7-3 3.46-3 1.93 0 3.5 1.57 3.5 3.5S13.43 24 11.5 24a3.502 3.502 0 0 1-3.46-3H8c-2.206 0-4-1.794-4-4V9.899A5.008 5.008 0 0 1 0 5c0-2.757 2.243-5 5-5s5 2.243 5 5a5.005 5.005 0 0 1-4.952 4.998A2.482 2.482 0 0 0 7.482 12h.558c.244-1.693 1.7-3 3.46-3a3.502 3.502 0 0 1 3.46 3h2.08a3.503 3.503 0 0 1 3.46-3c1.93 0 3.5 1.57 3.5 3.5zm-15 8c0 1.378 1.122 2.5 2.5 2.5s2.5-1.122 2.5-2.5-1.122-2.5-2.5-2.5S9 19.122 9 20.5zM5 9c2.206 0 4-1.794 4-4S7.206 1 5 1 1 2.794 1 5s1.794 4 4 4zm9 3.5c0-1.378-1.122-2.5-2.5-2.5S9 11.122 9 12.5s1.122 2.5 2.5 2.5 2.5-1.122 2.5-2.5zm9 0c0-1.378-1.122-2.5-2.5-2.5S18 11.122 18 12.5s1.122 2.5 2.5 2.5 2.5-1.122 2.5-2.5zm-13 8a.5.5 0 1 0 1 0 .5.5 0 0 0-1 0zm2 0a.5.5 0 1 0 1 0 .5.5 0 0 0-1 0zm12 0c0 1.93-1.57 3.5-3.5 3.5a3.503 3.503 0 0 1-3.46-3.002c-.007.001-.013.005-.021.005l-.506.017h-.017a.5.5 0 0 1-.016-.999l.506-.017c.018-.002.035.006.052.007A3.503 3.503 0 0 1 20.5 17c1.93 0 3.5 1.57 3.5 3.5zm-1 0c0-1.378-1.122-2.5-2.5-2.5S18 19.122 18 20.5s1.122 2.5 2.5 2.5 2.5-1.122 2.5-2.5z" fill="#2088FF"/>
    </g>
    <g transform="translate(482,658) scale(2.0)">
        <path d="M22.71 13.145c-1.66 2.092-3.452 4.483-7.038 4.483-3.203 0-4.397-2.825-4.48-5.12.701 1.484 2.073 2.685 4.214 2.63 4.117-.133 6.94-3.852 6.94-7.239 0-4.05-3.022-6.972-8.268-6.972-3.752 0-8.4 1.428-11.455 3.685C2.59 6.937 3.885 9.958 4.35 9.626c2.648-1.904 4.748-3.13 6.784-3.744C8.12 9.244.886 17.05 0 18.425c.1 1.261 1.66 4.648 2.424 4.648.232 0 .431-.133.664-.365a100.49 100.49 0 0 0 5.54-6.765c.222 3.104 1.748 6.898 6.014 6.898 3.819 0 7.604-2.756 9.33-8.965.2-.764-.73-1.361-1.261-.73zm-4.349-5.013c0 1.959-1.926 2.922-3.685 2.922-.941 0-1.664-.247-2.235-.568 1.051-1.592 2.092-3.225 3.21-4.973 1.972.334 2.71 1.43 2.71 2.619z"/>
    </g>
    <g transform="translate(595,658) scale(2.0)">
        <path d="M23.5594 14.7228a.5269.5269 0 0 0-.0563-.1191c-.139-.2632-.4768-.3418-1.0074-.2321-1.6533.3411-2.2935.1312-2.5256-.0191 1.342-2.0482 2.445-4.522 3.0411-6.8297.2714-1.0507.7982-3.5237.1222-4.7316a1.5641 1.5641 0 0 0-.1509-.235C21.6931.9086 19.8007.0248 17.5099.0005c-1.4947-.0158-2.7705.3461-3.1161.4794a9.449 9.449 0 0 0-.5159-.0816 8.044 8.044 0 0 0-1.3114-.1278c-1.1822-.0184-2.2038.2642-3.0498.8406-.8573-.3211-4.7888-1.645-7.2219.0788C.9359 2.1526.3086 3.8733.4302 6.3043c.0409.818.5069 3.334 1.2423 5.7436.4598 1.5065.9387 2.7019 1.4334 3.582.553.9942 1.1259 1.5933 1.7143 1.7895.4474.1491 1.1327.1441 1.8581-.7279.8012-.9635 1.5903-1.8258 1.9446-2.2069.4351.2355.9064.3625 1.39.3772a.0569.0569 0 0 0 .0004.0041 11.0312 11.0312 0 0 0-.2472.3054c-.3389.4302-.4094.5197-1.5002.7443-.3102.064-1.1344.2339-1.1464.8115-.0025.1224.0329.2309.0919.3268.2269.4231.9216.6097 1.015.6331 1.3345.3335 2.5044.092 3.3714-.6787-.017 2.231.0775 4.4174.3454 5.0874.2212.5529.7618 1.9045 2.4692 1.9043.2505 0 .5263-.0291.8296-.0941 1.7819-.3821 2.5557-1.1696 2.855-2.9059.1503-.8707.4016-2.8753.5388-4.1012.0169-.0703.0357-.1207.057-.1362.0007-.0005.0697-.0471.4272.0307a.3673.3673 0 0 0 .0443.0068l.2539.0223.0149.001c.8468.0384 1.9114-.1426 2.5312-.4308.6438-.2988 1.8057-1.0323 1.5951-1.6698z" fill="#4169E1"/>
    </g>
    <g transform="translate(707,658) scale(2.0)">
        <path d="M17.193 9.555c-1.264-5.58-4.252-7.414-4.573-8.115-.28-.394-.53-.954-.735-1.44-.036.495-.055.685-.523 1.184-.723.566-4.438 3.682-4.74 10.02-.282 5.912 4.27 9.435 4.888 9.884l.07.05A73.49 73.49 0 0111.91 24h.481c.114-1.032.284-2.056.51-3.07.417-.296.604-.463.85-.693a11.342 11.342 0 003.639-8.464c.01-.814-.103-1.662-.197-2.218zm-5.336 8.195s0-8.291.275-8.29c.213 0 .49 10.695.49 10.695-.381-.045-.765-1.76-.765-2.405z" fill="#47A248"/>
    </g>
    <g transform="translate(700,1083) scale(1.0)">
        <path d="M12 .297c-6.63 0-12 5.373-12 12 0 5.303 3.438 9.8 8.205 11.385.6.113.82-.258.82-.577 0-.285-.01-1.04-.015-2.04-3.338.724-4.042-1.61-4.042-1.61C4.422 18.07 3.633 17.7 3.633 17.7c-1.087-.744.084-.729.084-.729 1.205.084 1.838 1.236 1.838 1.236 1.07 1.835 2.809 1.305 3.495.998.108-.776.417-1.305.76-1.605-2.665-.3-5.466-1.332-5.466-5.93 0-1.31.465-2.38 1.235-3.22-.135-.303-.54-1.523.105-3.176 0 0 1.005-.322 3.3 1.23.96-.267 1.98-.399 3-.405 1.02.006 2.04.138 3 .405 2.28-1.552 3.285-1.23 3.285-1.23.645 1.653.24 2.873.12 3.176.765.84 1.23 1.91 1.23 3.22 0 4.61-2.805 5.625-5.475 5.92.42.36.81 1.096.81 2.22 0 1.606-.015 2.896-.015 3.286 0 .315.21.69.825.57C20.565 22.092 24 17.592 24 12.297c0-6.627-5.373-12-12-12" fill="#F0F6FC"/>
    </g>

    <text x="56"  y="637" font-family="JetBrains Mono, monospace" font-size="10" fill="#9CA3AF" text-anchor="middle">Java 21</text>
    <text x="169" y="637" font-family="JetBrains Mono, monospace" font-size="10" fill="#9CA3AF" text-anchor="middle">C++</text>
    <text x="281" y="637" font-family="JetBrains Mono, monospace" font-size="10" fill="#9CA3AF" text-anchor="middle">Rails</text>
    <text x="394" y="637" font-family="JetBrains Mono, monospace" font-size="10" fill="#9CA3AF" text-anchor="middle">Spring Boot</text>
    <text x="506" y="637" font-family="JetBrains Mono, monospace" font-size="10" fill="#9CA3AF" text-anchor="middle">Kafka</text>
    <text x="619" y="637" font-family="JetBrains Mono, monospace" font-size="10" fill="#9CA3AF" text-anchor="middle">Grafana</text>
    <text x="731" y="637" font-family="JetBrains Mono, monospace" font-size="10" fill="#9CA3AF" text-anchor="middle">Prometheus</text>
    <text x="844" y="637" font-family="JetBrains Mono, monospace" font-size="10" fill="#9CA3AF" text-anchor="middle">Docker</text>

    <text x="56"  y="720" font-family="JetBrains Mono, monospace" font-size="10" fill="#9CA3AF" text-anchor="middle">Kubernetes</text>
    <text x="169" y="720" font-family="JetBrains Mono, monospace" font-size="10" fill="#9CA3AF" text-anchor="middle">Jenkins</text>
    <text x="281" y="720" font-family="JetBrains Mono, monospace" font-size="10" fill="#9CA3AF" text-anchor="middle">Rancher</text>
    <text x="394" y="720" font-family="JetBrains Mono, monospace" font-size="10" fill="#9CA3AF" text-anchor="middle">GH Actions</text>
    <text x="506" y="720" font-family="JetBrains Mono, monospace" font-size="10" fill="#9CA3AF" text-anchor="middle">Redis</text>
    <text x="619" y="720" font-family="JetBrains Mono, monospace" font-size="10" fill="#9CA3AF" text-anchor="middle">PostgreSQL</text>
    <text x="731" y="720" font-family="JetBrains Mono, monospace" font-size="10" fill="#9CA3AF" text-anchor="middle">MongoDB</text>
    <text x="844" y="720" font-family="JetBrains Mono, monospace" font-size="10" fill="#9CA3AF" text-anchor="middle">Oracle DB</text>

    <g transform="translate(257,658) scale(2.0)">
        <rect width="24" height="24" rx="4" fill="#0075A8"/>
        <path d="M22.727 9.007a.713.713 0 01-.726.855h-1.542V8.798h.468a.883.883 0 00.875-.875v-.388c0-.477.12-.875.269-.875.139 0 .328.388.407.865l.249 1.482zm-3.49-1.253c.486 0 .874.388.894.885v4.555a.883.883 0 01-.875.875h-2.357a.883.883 0 01-.875-.875v-1.79a.871.871 0 00-.348.696v1.502c0 .477.397.875.875.875h1.531v2.327a.535.535 0 01-.537.538h-2.884a.535.535 0 01-.537-.538v-2.168a.535.535 0 00-.537-.537h-7.2a.535.535 0 00-.538.537v2.168a.535.535 0 01-.537.538H2.428a.535.535 0 01-.537-.538V10.58L.588 11.603c-.06.04-.14.04-.189-.02l-.368-.438a.135.135 0 01-.01-.159l1.91-2.914a.536.536 0 01.487-.318h10.165a.54.54 0 01.527.627l-.21 1.243a.54.54 0 00.528.626h2.039a.535.535 0 00.527-.437c-.13.04-.269.06-.418.06h-1.452c-.487 0-.815-.388-.736-.866l.249-1.482c.08-.477.258-.865.407-.865.15 0 .269.398.269.875v.229c.02-.01.05-.01.08-.01h4.843zm3.65-.537c0-.388.288-.557.556-.557.269 0 .557.17.557.557 0 .378-.288.547-.557.547-.268 0-.557-.17-.557-.547zm.984 0c0-.308-.2-.438-.418-.438-.219 0-.428.13-.428.438 0 .298.21.438.428.438.219-.01.418-.14.418-.438zm-.607-.279h.199c.1 0 .199.03.199.17 0 .08-.06.129-.13.149l.13.228h-.12l-.119-.218h-.05v.218h-.109v-.547zm.199.25c.05 0 .09-.03.09-.08 0-.06-.05-.07-.09-.07h-.1v.15h.1z" fill="white"/>
    </g>

    <rect x="820" y="658" width="48" height="48" rx="8" fill="#FFFFFF"/>
    <g transform="translate(820,658) scale(0.375)">
        <path fill="#EA1B22" d="M55.387 66.469h8.333l-4.407-7.09-8.088 12.819h-3.681L57.382 56.8a2.324 2.324 0 011.931-.998c.765 0 1.478.363 1.892.972l9.876 15.424H67.4l-1.736-2.865h-8.438l-1.839-2.864zm38.235 2.864V55.958h-3.123v14.685c0 .402.156.791.454 1.089.298.298.7.466 1.141.466h14.244l1.841-2.865H93.622zm-51.677-2.397c3.033 0 5.496-2.449 5.496-5.482s-2.462-5.496-5.496-5.496H28.28v16.241h3.123V58.822h10.335c1.452 0 2.618 1.18 2.618 2.631s-1.167 2.631-2.618 2.631l-8.806-.013 9.324 8.127h4.538l-6.274-5.263h1.425zM9.059 72.198c-4.483 0-8.122-3.629-8.122-8.114s3.638-8.127 8.122-8.127h9.439c4.485 0 8.121 3.643 8.121 8.127s-3.636 8.114-8.121 8.114H9.059zm9.229-2.865a5.25 5.25 0 005.258-5.249 5.262 5.262 0 00-5.258-5.263H9.267a5.262 5.262 0 00-5.256 5.263 5.25 5.25 0 005.256 5.249h9.021zm59.314 2.865c-4.484 0-8.126-3.629-8.126-8.114s3.642-8.127 8.126-8.127h11.212l-1.829 2.864H77.81a5.267 5.267 0 00-5.264 5.263c0 2.903 2.36 5.249 5.264 5.249h11.263l-1.84 2.865h-9.631zm38.197-2.865a5.25 5.25 0 01-5.055-3.824h13.35l1.84-2.864h-15.19a5.266 5.266 0 015.055-3.824h9.163l1.854-2.864h-11.225c-4.484 0-8.126 3.643-8.126 8.127s3.642 8.114 8.126 8.114h9.631l1.841-2.865h-11.264"/>
    </g>

    <rect x="50" y="748" width="800" height="1" fill="url(#rowLine)"/>

    <text x="450" y="780" font-family="JetBrains Mono, monospace" font-size="11" fill="#ED8B00" text-anchor="middle" letter-spacing="4" font-weight="600">FEATURED PROJECTS</text>
    <rect x="200" y="788" width="500" height="1" fill="url(#sectionLine)"/>

    <rect x="60" y="802" width="780" height="185" rx="10" fill="url(#cardGrad)" stroke="#ED8B00" stroke-width="1" opacity="0.8"/>

    <circle cx="435" cy="999" r="4" fill="#ED8B00">
        <animate attributeName="fill" values="#ED8B00;#ED8B00;#374151;#374151;#374151;#374151;#ED8B00" keyTimes="0;0.28;0.33;0.64;0.66;0.98;1" dur="15s" repeatCount="indefinite"/>
    </circle>
    <circle cx="450" cy="999" r="4" fill="#374151">
        <animate attributeName="fill" values="#374151;#374151;#ED8B00;#ED8B00;#374151;#374151;#374151" keyTimes="0;0.32;0.33;0.64;0.66;0.99;1" dur="15s" repeatCount="indefinite"/>
    </circle>
    <circle cx="465" cy="999" r="4" fill="#374151">
        <animate attributeName="fill" values="#374151;#374151;#374151;#374151;#ED8B00;#ED8B00;#374151" keyTimes="0;0.32;0.33;0.65;0.66;0.98;1" dur="15s" repeatCount="indefinite"/>
    </circle>

    <g opacity="1">
        <animate attributeName="opacity" values="1;1;0;0;0;0;1" keyTimes="0;0.28;0.33;0.64;0.66;0.98;1" dur="15s" repeatCount="indefinite"/>
        <text x="450" y="822" font-family="JetBrains Mono, monospace" font-size="10" fill="#6B7280" text-anchor="middle">1 / 3</text>
        <text x="450" y="848" font-family="JetBrains Mono, monospace" font-size="17" fill="#F0F6FC" text-anchor="middle" font-weight="700">Realtime Ticketing Platform</text>
        <rect x="200" y="854" width="500" height="1" fill="#ED8B00" opacity="0.2"/>
        <text x="450" y="878" font-family="JetBrains Mono, monospace" font-size="11" fill="#9CA3AF" text-anchor="middle">Distributed ticketing platform inspired by Ticketmaster and Eventbrite.</text>
        <g transform="translate(195,892)">
            <rect x="0" y="0" width="62" height="18" rx="3" fill="#ED8B00" opacity="0.15"/><text x="31" y="12" font-family="JetBrains Mono, monospace" font-size="9" fill="#ED8B00" text-anchor="middle">Java 21</text>
            <rect x="68" y="0" width="76" height="18" rx="3" fill="#6DB33F" opacity="0.15"/><text x="106" y="12" font-family="JetBrains Mono, monospace" font-size="9" fill="#6DB33F" text-anchor="middle">Spring Boot</text>
            <rect x="150" y="0" width="52" height="18" rx="3" fill="#9CA3AF" opacity="0.15"/><text x="176" y="12" font-family="JetBrains Mono, monospace" font-size="9" fill="#9CA3AF" text-anchor="middle">Kafka</text>
            <rect x="208" y="0" width="64" height="18" rx="3" fill="#47A248" opacity="0.15"/><text x="240" y="12" font-family="JetBrains Mono, monospace" font-size="9" fill="#47A248" text-anchor="middle">MongoDB</text>
            <rect x="278" y="0" width="54" height="18" rx="3" fill="#2496ED" opacity="0.15"/><text x="305" y="12" font-family="JetBrains Mono, monospace" font-size="9" fill="#2496ED" text-anchor="middle">Docker</text>
            <rect x="338" y="0" width="62" height="18" rx="3" fill="#F46800" opacity="0.15"/><text x="369" y="12" font-family="JetBrains Mono, monospace" font-size="9" fill="#F46800" text-anchor="middle">Grafana</text>
            <rect x="406" y="0" width="100" height="18" rx="3" fill="#E6522C" opacity="0.15"/><text x="456" y="12" font-family="JetBrains Mono, monospace" font-size="9" fill="#E6522C" text-anchor="middle">Prometheus</text>
        </g>
        <text x="450" y="936" font-family="JetBrains Mono, monospace" font-size="10" fill="#6B7280" text-anchor="middle">Event-driven · Microservices · WebSocket · SSE · Observability</text>
        <text x="450" y="952" font-family="JetBrains Mono, monospace" font-size="10" fill="#6B7280" text-anchor="middle">Real-time availability updates at scale</text>
    </g>

    <g opacity="0">
        <animate attributeName="opacity" values="0;0;1;1;0;0;0" keyTimes="0;0.32;0.33;0.64;0.66;0.99;1" dur="15s" repeatCount="indefinite"/>
        <text x="450" y="822" font-family="JetBrains Mono, monospace" font-size="10" fill="#6B7280" text-anchor="middle">2 / 3</text>
        <text x="450" y="848" font-family="JetBrains Mono, monospace" font-size="17" fill="#F0F6FC" text-anchor="middle" font-weight="700">Data Processing Platform</text>
        <rect x="200" y="854" width="500" height="1" fill="#ED8B00" opacity="0.2"/>
        <text x="450" y="878" font-family="JetBrains Mono, monospace" font-size="11" fill="#9CA3AF" text-anchor="middle">Enterprise-oriented platform for data ingestion, validation and analytics.</text>
        <g transform="translate(263,892)">
            <rect x="0" y="0" width="62" height="18" rx="3" fill="#ED8B00" opacity="0.15"/><text x="31" y="12" font-family="JetBrains Mono, monospace" font-size="9" fill="#ED8B00" text-anchor="middle">Java 21</text>
            <rect x="68" y="0" width="76" height="18" rx="3" fill="#6DB33F" opacity="0.15"/><text x="106" y="12" font-family="JetBrains Mono, monospace" font-size="9" fill="#6DB33F" text-anchor="middle">Spring Boot</text>
            <rect x="150" y="0" width="76" height="18" rx="3" fill="#4169E1" opacity="0.15"/><text x="188" y="12" font-family="JetBrains Mono, monospace" font-size="9" fill="#4169E1" text-anchor="middle">PostgreSQL</text>
            <rect x="232" y="0" width="66" height="18" rx="3" fill="#1F2937" opacity="0.8"/><text x="265" y="12" font-family="JetBrains Mono, monospace" font-size="9" fill="#9CA3AF" text-anchor="middle">REST API</text>
            <rect x="304" y="0" width="70" height="18" rx="3" fill="#ED8B00" opacity="0.15"/><text x="339" y="12" font-family="JetBrains Mono, monospace" font-size="9" fill="#ED8B00" text-anchor="middle">Dashboard</text>
        </g>
        <text x="450" y="936" font-family="JetBrains Mono, monospace" font-size="10" fill="#6B7280" text-anchor="middle">Batch processing · CSV/JSON ingestion · Data validation · Reporting</text>
        <text x="450" y="952" font-family="JetBrains Mono, monospace" font-size="10" fill="#6B7280" text-anchor="middle">Analytics-oriented dashboards with enterprise-grade data pipelines</text>
    </g>

    <g opacity="0">
        <animate attributeName="opacity" values="0;0;0;0;1;1;0" keyTimes="0;0.32;0.33;0.65;0.66;0.97;1" dur="15s" repeatCount="indefinite"/>
        <text x="450" y="822" font-family="JetBrains Mono, monospace" font-size="10" fill="#6B7280" text-anchor="middle">3 / 3</text>
        <text x="450" y="848" font-family="JetBrains Mono, monospace" font-size="17" fill="#F0F6FC" text-anchor="middle" font-weight="700">CppRoyale</text>
        <rect x="200" y="854" width="500" height="1" fill="#ED8B00" opacity="0.2"/>
        <text x="450" y="878" font-family="JetBrains Mono, monospace" font-size="11" fill="#9CA3AF" text-anchor="middle">Multiplayer real-time strategy game built on a client-server architecture.</text>
        <g transform="translate(274,892)">
            <rect x="0" y="0" width="58" height="18" rx="3" fill="#00599C" opacity="0.15"/><text x="29" y="12" font-family="JetBrains Mono, monospace" font-size="9" fill="#00599C" text-anchor="middle">C++17</text>
            <rect x="64" y="0" width="48" height="18" rx="3" fill="#8CC445" opacity="0.15"/><text x="88" y="12" font-family="JetBrains Mono, monospace" font-size="9" fill="#8CC445" text-anchor="middle">SFML</text>
            <rect x="118" y="0" width="78" height="18" rx="3" fill="#1F2937" opacity="0.8"/><text x="157" y="12" font-family="JetBrains Mono, monospace" font-size="9" fill="#9CA3AF" text-anchor="middle">Networking</text>
            <rect x="202" y="0" width="70" height="18" rx="3" fill="#ED8B00" opacity="0.15"/><text x="237" y="12" font-family="JetBrains Mono, monospace" font-size="9" fill="#ED8B00" text-anchor="middle">Game Loop</text>
            <rect x="278" y="0" width="74" height="18" rx="3" fill="#2563EB" opacity="0.15"/><text x="315" y="12" font-family="JetBrains Mono, monospace" font-size="9" fill="#2563EB" text-anchor="middle">Pathfinding</text>
        </g>
        <text x="450" y="936" font-family="JetBrains Mono, monospace" font-size="10" fill="#6B7280" text-anchor="middle">Client-server · Custom protocol · Fixed tick game loop · Real-time multiplayer</text>
        <text x="450" y="952" font-family="JetBrains Mono, monospace" font-size="10" fill="#6B7280" text-anchor="middle">Low-latency networking with deterministic game simulation</text>
    </g>

    <rect x="50" y="1016" width="800" height="1" fill="url(#rowLine)"/>

    <text x="450" y="1046" font-family="JetBrains Mono, monospace" font-size="11" fill="#ED8B00" text-anchor="middle" letter-spacing="4" font-weight="600">CONNECT</text>
    <rect x="200" y="1054" width="500" height="1" fill="url(#contactHeaderLine)"/>

    <rect x="52" y="1070" width="160" height="52" rx="8" fill="#161B22" stroke="#0A66C2" stroke-width="1">
        <animate attributeName="stroke-opacity" values="1;0.5;1" dur="3s" repeatCount="indefinite"/>
    </rect>
    <rect x="62" y="1086" width="20" height="20" rx="3" fill="#0A66C2"/>
    <text x="72" y="1100" font-family="Arial" font-size="11" fill="white" text-anchor="middle" font-weight="900">in</text>
    <text x="151" y="1093" font-family="JetBrains Mono, monospace" font-size="9" fill="#9CA3AF" text-anchor="middle">LinkedIn</text>
    <text x="151" y="1106" font-family="JetBrains Mono, monospace" font-size="8" fill="#0A66C2" font-weight="600" text-anchor="middle">mathis-dulieu</text>

    <rect x="264" y="1070" width="160" height="52" rx="8" fill="#161B22" stroke="#ED8B00" stroke-width="1">
        <animate attributeName="stroke-opacity" values="1;0.5;1" dur="3.4s" begin="0.3s" repeatCount="indefinite"/>
    </rect>
    <g transform="translate(274,1086)">
        <path d="M12 2C6.48 2 2 6.48 2 12s4.48 10 10 10 10-4.48 10-10S17.52 2 12 2zm-1 17.93c-3.95-.49-7-3.85-7-7.93 0-.62.08-1.21.21-1.79L9 15v1c0 1.1.9 2 2 2v1.93zm6.9-2.54c-.26-.81-1-1.39-1.9-1.39h-1v-3c0-.55-.45-1-1-1H8v-2h2c.55 0 1-.45 1-1V7h2c1.1 0 2-.9 2-2v-.41c2.93 1.19 5 4.06 5 7.41 0 2.08-.8 3.97-2.1 5.39z" fill="#ED8B00" transform="scale(0.833)"/>
    </g>
    <text x="363" y="1093" font-family="JetBrains Mono, monospace" font-size="9" fill="#9CA3AF" text-anchor="middle">Portfolio</text>
    <text x="363" y="1106" font-family="JetBrains Mono, monospace" font-size="8" fill="#ED8B00" font-weight="600" text-anchor="middle">mathisdulieu.com</text>

    <rect x="476" y="1070" width="160" height="52" rx="8" fill="#161B22" stroke="#EA4335" stroke-width="1">
        <animate attributeName="stroke-opacity" values="1;0.5;1" dur="2.8s" begin="0.6s" repeatCount="indefinite"/>
    </rect>
    <g transform="translate(486,1086)">
        <path d="M20 4H4c-1.1 0-2 .9-2 2v12c0 1.1.9 2 2 2h16c1.1 0 2-.9 2-2V6c0-1.1-.9-2-2-2zm0 4l-8 5-8-5V6l8 5 8-5v2z" fill="#EA4335" transform="scale(0.833)"/>
    </g>
    <text x="575" y="1093" font-family="JetBrains Mono, monospace" font-size="9" fill="#9CA3AF" text-anchor="middle">Email</text>
    <text x="575" y="1106" font-family="JetBrains Mono, monospace" font-size="8" fill="#EA4335" font-weight="600" text-anchor="middle">dulieu.mathis@gmail.com</text>

    <rect x="688" y="1070" width="160" height="52" rx="8" fill="#161B22" stroke="#F0F6FC" stroke-width="1">
        <animate attributeName="stroke-opacity" values="1;0.5;1" dur="3.2s" begin="0.9s" repeatCount="indefinite"/>
    </rect>
    <g transform="translate(698,1086)">
        <path d="M12 .297c-6.63 0-12 5.373-12 12 0 5.303 3.438 9.8 8.205 11.385.6.113.82-.258.82-.577 0-.285-.01-1.04-.015-2.04-3.338.724-4.042-1.61-4.042-1.61C4.422 18.07 3.633 17.7 3.633 17.7c-1.087-.744.084-.729.084-.729 1.205.084 1.838 1.236 1.838 1.236 1.07 1.835 2.809 1.305 3.495.998.108-.776.417-1.305.76-1.605-2.665-.3-5.466-1.332-5.466-5.93 0-1.31.465-2.38 1.235-3.22-.135-.303-.54-1.523.105-3.176 0 0 1.005-.322 3.3 1.23.96-.267 1.98-.399 3-.405 1.02.006 2.04.138 3 .405 2.28-1.552 3.285-1.23 3.285-1.23.645 1.653.24 2.873.12 3.176.765.84 1.23 1.91 1.23 3.22 0 4.61-2.805 5.625-5.475 5.92.42.36.81 1.096.81 2.22 0 1.606-.015 2.896-.015 3.286 0 .315.21.69.825.57C20.565 22.092 24 17.592 24 12.297c0-6.627-5.373-12-12-12" fill="#F0F6FC" transform="scale(0.833)"/>
    </g>
    <text x="787" y="1093" font-family="JetBrains Mono, monospace" font-size="9" fill="#9CA3AF" text-anchor="middle">GitHub</text>
    <text x="787" y="1106" font-family="JetBrains Mono, monospace" font-size="8" fill="#F0F6FC" font-weight="600" text-anchor="middle">MathisDulieu</text>

    <rect x="0" y="1147" width="900" height="3" rx="3" fill="url(#lineGrad)"/>

</svg>